<svg width="72" height="72" viewBox="0 0 72 72" fill="none" xmlns="http://www.w3.org/2000/svg">
<path d="M29.25 40.5C29.25 41.835 29.6459 43.1401 30.3876 44.2501C31.1293 45.3601 32.1835 46.2253 33.4169 46.7362C34.6503 47.2471 36.0075 47.3808 37.3169 47.1203C38.6262 46.8599 39.829 46.217 40.773 45.273C41.717 44.329 42.3599 43.1262 42.6203 41.8169C42.8808 40.5075 42.7471 39.1503 42.2362 37.9169C41.7253 36.6835 40.8601 35.6293 39.7501 34.8876C38.6401 34.1459 37.335 33.75 36 33.75C34.665 33.75 33.3599 33.3541 32.2499 32.6124C31.1399 31.8707 30.2747 30.8165 29.7638 29.5831C29.2529 28.3497 29.1193 26.9925 29.3797 25.6831C29.6402 24.3738 30.283 23.171 31.227 22.227C32.171 21.283 33.3738 20.6402 34.6831 20.3797C35.9925 20.1193 37.3497 20.2529 38.5831 20.7638C39.8165 21.2747 40.8707 22.1399 41.6124 23.2499C42.3541 24.3599 42.75 25.665 42.75 27" stroke="#0037EB" stroke-width="1.5" stroke-linecap="round" stroke-linejoin="round"/>
<path d="M36 15.75V20.25" stroke="#0037EB" stroke-width="1.5" stroke-linecap="round" stroke-linejoin="round"/>
<path d="M36 47.25V51.75" stroke="#0037EB" stroke-width="1.5" stroke-linecap="round" stroke-linejoin="round"/>
<path d="M67.5001 28.125C67.5176 37.294 64.4051 46.1944 58.6773 53.3543C52.9494 60.5141 44.9493 65.5044 36.0001 67.5C27.0508 65.5044 19.0507 60.5141 13.3229 53.3543C7.59502 46.1944 4.4825 37.294 4.50007 28.125V12.375C4.50007 10.2864 5.32976 8.28338 6.80661 6.80653C8.28346 5.32968 10.2865 4.5 12.3751 4.5H59.6251C61.7137 4.5 63.7167 5.32968 65.1935 6.80653C66.6704 8.28338 67.5001 10.2864 67.5001 12.375V28.125Z" stroke="#0037EB" stroke-width="1.5" stroke-linecap="round" stroke-linejoin="round"/>
</svg>
