<svg width="63" height="51" viewBox="0 0 63 51" fill="none" xmlns="http://www.w3.org/2000/svg">
<path d="M4.52293 33.4617C4.34924 38.4114 4.98611 43.4573 6.70371 48.118C7.24407 49.3313 7.99671 51.0261 9.63711 50.6602C23.2428 50.0247 36.3467 45.8647 49.8365 44.2854C52.9436 43.7654 56.2245 43.5728 59.0807 42.1284C62.1878 40.1447 62.2457 36.0425 62.1492 32.7299C61.5895 23.0233 59.3316 13.4899 58.386 3.82183C58.1544 2.58924 58.3087 0.663318 56.6683 0.451467C52.384 0.0277643 48.0997 0.624799 43.8346 0.875169C32.5834 1.6648 21.5831 4.43812 10.3318 5.26627C7.20543 5.72849 3.84744 5.47812 0.933317 6.78775C-0.687785 7.90478 0.238557 10.0233 0.50874 11.564C2.49652 18.7285 4.21415 26.0084 4.52293 33.4617ZM55.742 3.26331C56.2824 10.8322 57.2087 18.3625 58.0193 25.8736C58.4053 29.3788 58.6175 32.9032 58.3281 36.4277C53.4069 30.5343 46.768 26.4514 41.0942 21.3477C45.5136 14.9922 50.3577 8.86774 55.742 3.26331ZM29.071 6.22923C36.4625 4.86182 43.9311 4.12998 51.4191 3.57146C45.9382 9.23366 41.1328 15.5122 36.6555 22.0025C33.4905 20.6736 30.422 19.1136 27.1412 18.0544C22.1814 16.3403 16.8356 15.647 12.1846 13.0662C9.9459 11.8144 7.74584 10.5048 5.42998 9.407C13.3425 8.65589 21.255 7.69293 29.071 6.22923ZM16.1408 18.0544C20.0199 19.4025 23.9954 20.4233 27.8359 21.9062C21.9883 29.8795 15.2145 37.1017 9.01953 44.7862C8.03529 38.0647 8.44057 31.1892 6.97386 24.5255C5.95102 19.961 4.83173 15.4351 3.6352 10.9092C7.78445 13.3166 11.5284 16.4944 16.1408 18.0544Z" fill="black" fill-opacity="0.5"/>
</svg>
