<svg width="196" height="193" viewBox="0 0 196 193" fill="none" xmlns="http://www.w3.org/2000/svg">
<path d="M16.3612 79.1957C18.103 73.8556 21.1798 68.6127 26.4113 66.0745C33.0876 62.5013 39.4266 58.3142 45.8356 54.2904C55.3692 48.4154 66.7556 47.1436 76.829 42.5463C90.0108 36.9968 103.829 32.7431 118.082 31.1507C125.157 30.5581 132.58 29.8544 139.38 32.3681C146.601 35.1851 149.293 43.1012 152.437 49.5226C160.948 69.167 168.94 89.7174 169.892 111.343C170.418 118.507 167.246 125.887 161.086 129.782C151.339 137.622 138.13 135.749 127.018 140.003C125.993 146.88 126.794 154.996 121.962 160.515C114.696 159.294 110.454 152.443 106.932 146.704C98.8743 148.943 91.0407 152.001 82.7498 153.471C74.5504 155.258 65.7227 157.731 57.492 154.552C47.9066 150.569 40.1434 142.841 35.3467 133.708C28.9985 121.455 23.3412 108.855 19.1645 95.7021C17.5918 90.399 14.5853 84.8552 16.3612 79.1957ZM35.0032 119.612C39.769 130.669 45.6454 142.357 56.8688 148.046C66.1024 152.439 76.3731 148.806 85.782 147.117C93.9688 145.804 101.329 141.38 109.528 140.269C113.3 143.173 115.66 147.47 118.506 151.18C120.26 146.042 120.064 140.343 122.469 135.477C130.309 130.766 139.698 130.402 148.366 128.25C156.484 126.222 163.743 118.698 162.817 109.906C161.763 86.5325 153.511 64.0044 143.541 43.0373C140.851 35.9233 132.413 35.8875 126.045 35.9095C104.937 36.632 84.4375 43.4057 65.6059 52.6686C52.2791 56.8381 41.4457 65.8048 29.5288 72.6413C24.7387 75.6371 20.5742 81.8811 22.9453 87.6079C26.4711 98.4599 29.9592 109.38 35.0032 119.612Z" fill="black"/>
<path d="M59.6934 75.5016C67.8033 72.8456 75.6263 77.9544 82.161 82.1728C81.0193 75.2207 80.0323 66.894 85.4241 61.3285C92.6967 54.8088 104.702 52.9001 112.943 58.8631C122.146 64.5033 125.761 76.2239 123.76 86.4773C121.285 98.7476 113.532 108.937 106.844 119.198C104.616 122.293 104.429 126.143 103.929 129.784C100.057 127.963 96.3556 125.899 92.7473 123.601C81.3376 116.349 68.9693 110.347 58.8663 101.183C55.0663 97.6215 51.358 93.025 51.5511 87.5231C51.7603 82.4752 54.4353 76.8321 59.6934 75.5016Z" fill="#F2415A"/>
</svg>
