<svg width="20" height="20" viewBox="0 0 20 20" fill="none" xmlns="http://www.w3.org/2000/svg">
<g clip-path="url(#clip0_776_5118)">
<path d="M9.63963 0.84773C9.67338 0.780759 9.72506 0.724475 9.78892 0.685149C9.85277 0.645823 9.9263 0.625 10.0013 0.625C10.0763 0.625 10.1498 0.645823 10.2137 0.685149C10.2775 0.724475 10.3292 0.780759 10.363 0.84773L11.2038 2.54273C11.2329 2.60083 11.2755 2.65104 11.3282 2.68906C11.3809 2.72708 11.442 2.75178 11.5063 2.76106L13.393 3.03356C13.4667 3.04392 13.536 3.07458 13.5933 3.12212C13.6505 3.16966 13.6934 3.2322 13.7171 3.30273C13.7404 3.37299 13.7432 3.4484 13.7254 3.52023C13.7076 3.59206 13.6697 3.65736 13.6163 3.70856L12.2513 5.0369C12.2052 5.08137 12.1706 5.13641 12.1506 5.19725C12.1306 5.25809 12.1256 5.3229 12.1363 5.38606L12.4596 7.25856C12.4718 7.33182 12.4631 7.40703 12.4345 7.47557C12.4059 7.54411 12.3586 7.6032 12.298 7.64606C12.2369 7.68968 12.1649 7.71549 12.09 7.72064C12.0151 7.72579 11.9403 7.71007 11.8738 7.67523L10.1896 6.7969C10.1316 6.76611 10.067 6.75001 10.0013 6.75001C9.93563 6.75001 9.87096 6.76611 9.81296 6.7969L8.13296 7.67523C8.06648 7.71007 7.99163 7.72579 7.91675 7.72064C7.84187 7.71549 7.76988 7.68968 7.70879 7.64606C7.64814 7.6032 7.6008 7.54411 7.57221 7.47557C7.54361 7.40703 7.53492 7.33182 7.54713 7.25856L7.87046 5.38606C7.8811 5.3229 7.87619 5.25809 7.85616 5.19725C7.83612 5.13641 7.80156 5.08137 7.75546 5.0369L6.38629 3.70856C6.33286 3.65736 6.29503 3.59206 6.27718 3.52023C6.25934 3.4484 6.26221 3.37299 6.28546 3.30273C6.30918 3.2322 6.35207 3.16966 6.40932 3.12212C6.46658 3.07458 6.53593 3.04392 6.60963 3.03356L8.49629 2.76106C8.56059 2.75178 8.62169 2.72708 8.67437 2.68906C8.72704 2.65104 8.76973 2.60083 8.79879 2.54273L9.63963 0.84773Z" stroke="black" stroke-width="1.5" stroke-linecap="round" stroke-linejoin="round"/>
<path d="M5.26812 8.41679L4.54896 8.04179C4.49068 8.01141 4.42593 7.99554 4.36021 7.99554C4.29449 7.99554 4.22974 8.01141 4.17146 8.04179L2.49229 8.91679C2.42568 8.95154 2.35078 8.96728 2.27581 8.96228C2.20085 8.95728 2.1287 8.93174 2.06729 8.88845C2.00665 8.84542 1.95938 8.78615 1.93093 8.71745C1.90248 8.64876 1.894 8.57342 1.90646 8.50012L2.22896 6.62845C2.23985 6.56535 2.23514 6.50055 2.21524 6.43969C2.19534 6.37883 2.16086 6.32376 2.11479 6.27929L0.74479 4.95345C0.691668 4.90204 0.65411 4.8367 0.636423 4.76492C0.618736 4.69314 0.621636 4.61783 0.64479 4.54762C0.668511 4.47708 0.7114 4.41454 0.768653 4.36701C0.825906 4.31947 0.895263 4.2888 0.968957 4.27845L2.85479 4.00595C2.91924 3.9968 2.9805 3.97215 3.03333 3.93413C3.08617 3.8961 3.12899 3.84583 3.15812 3.78762L3.99979 2.09262C4.03342 2.02557 4.08508 1.96923 4.14897 1.92992C4.21286 1.89062 4.28645 1.86991 4.36146 1.87012" stroke="black" stroke-width="1.5" stroke-linecap="round" stroke-linejoin="round"/>
<path d="M14.7305 8.41679L15.4496 8.04095C15.5079 8.01057 15.5727 7.99471 15.6384 7.99471C15.7041 7.99471 15.7689 8.01057 15.8271 8.04095L17.5063 8.91679C17.5729 8.95154 17.6478 8.96728 17.7228 8.96228C17.7977 8.95728 17.8699 8.93174 17.9313 8.88845C17.9919 8.84542 18.0392 8.78615 18.0677 8.71745C18.0961 8.64876 18.1046 8.57342 18.0921 8.50012L17.7696 6.62845C17.7587 6.56535 17.7634 6.50055 17.7833 6.43969C17.8032 6.37883 17.8377 6.32376 17.8838 6.27929L19.2538 4.95012C19.3069 4.89871 19.3445 4.83336 19.3622 4.76158C19.3799 4.6898 19.377 4.61449 19.3538 4.54429C19.3301 4.47375 19.2872 4.41121 19.2299 4.36367C19.1727 4.31613 19.1033 4.28547 19.0296 4.27512L17.1438 4.00262C17.0794 3.99347 17.0181 3.96882 16.9653 3.93079C16.9124 3.89277 16.8696 3.84249 16.8405 3.78429L15.9988 2.09262C15.9652 2.02557 15.9135 1.96923 15.8496 1.92992C15.7857 1.89062 15.7121 1.86991 15.6371 1.87012" stroke="black" stroke-width="1.5" stroke-linecap="round" stroke-linejoin="round"/>
<path d="M14.1892 19.3695C13.6668 18.7724 13.0229 18.294 12.3006 17.9662C11.5782 17.6383 10.7941 17.4687 10.0008 17.4688C9.20757 17.4687 8.42348 17.6383 7.70112 17.9662C6.97876 18.294 6.33483 18.7724 5.8125 19.3695" stroke="black" stroke-width="1.5" stroke-linecap="round" stroke-linejoin="round"/>
<path d="M6.5625 12.7803C6.5625 13.692 6.92466 14.5663 7.56932 15.211C8.21398 15.8556 9.08832 16.2178 10 16.2178C10.9117 16.2178 11.786 15.8556 12.4307 15.211C13.0753 14.5663 13.4375 13.692 13.4375 12.7803C13.4375 11.8686 13.0753 10.9942 12.4307 10.3496C11.786 9.70494 10.9117 9.34277 10 9.34277C9.08832 9.34277 8.21398 9.70494 7.56932 10.3496C6.92466 10.9942 6.5625 11.8686 6.5625 12.7803Z" stroke="black" stroke-width="1.5" stroke-linecap="round" stroke-linejoin="round"/>
</g>
<defs>
<clipPath id="clip0_776_5118">
<rect width="20" height="20" fill="white"/>
</clipPath>
</defs>
</svg>
