<svg width="46" height="73" viewBox="0 0 46 73" fill="none" xmlns="http://www.w3.org/2000/svg">
<path d="M35.8459 1.57917C32.4318 -0.272398 28.4145 -0.138397 24.6868 0.214863C20.0422 0.665575 15.5061 2.50497 11.9835 5.6234C10.379 7.09735 8.38843 8.05966 6.82012 9.59451C3.76795 12.518 1.82567 16.477 0.945001 20.6065C0.305614 23.6397 -0.297574 26.7581 0.160854 29.8644C0.776114 34.5542 1.82568 39.2197 3.82829 43.5075C6.69951 50.1829 11.0546 56.0665 15.6268 61.6334C18.112 64.362 20.3317 67.3465 23.1909 69.6975C24.7954 71.0375 26.2792 73.0596 28.5955 72.9987C29.9225 73.0108 30.7791 71.817 31.6356 70.9643C31.8286 70.1482 32.1302 69.3564 32.5283 68.6377C34.35 65.3609 35.5202 61.7796 36.992 58.3445C40.8524 49.2693 44.1941 39.8409 45.5453 30.0105C46.5225 23.3229 46.0399 16.209 42.9636 10.094C41.2747 6.78061 39.1755 3.3942 35.8459 1.57917ZM43.6271 27.2575C42.4449 36.9417 39.26 46.2483 35.6649 55.2626C33.8071 59.6479 32.3835 64.2402 30.0793 68.4306C28.5714 66.908 26.8462 65.5802 25.6398 63.7895C23.2029 60.33 20.5609 57.0167 17.7018 53.8983C13.781 49.6713 10.2945 44.9571 8.09889 39.5729C6.03596 34.5786 5.05882 29.1335 5.15533 23.7371C5.40867 15.9167 10.1618 8.69309 16.7487 4.7585C20.4282 2.55367 24.8074 1.87152 29.0298 1.92025C32.1785 1.96898 35.5443 2.91913 37.6555 5.4285C42.843 11.2999 44.6043 19.5832 43.6271 27.2575Z" fill="black" fill-opacity="0.5"/>
<path d="M32.6985 14.857C30.3461 13.176 27.3663 11.4828 24.4227 12.6035C22.8302 13.1395 21.5153 14.2236 20.3451 15.4052C18.7165 17.0984 16.6535 18.5236 15.8453 20.8381C14.3614 24.456 15.5678 28.5977 17.8117 31.5943C19.9711 34.3229 23.4334 35.9674 26.8837 35.9187C30.4185 35.7847 33.1449 32.9342 34.7494 29.9742C36.366 27.1481 36.2453 23.7617 35.9196 20.631C35.7025 18.3531 34.5926 16.1483 32.6985 14.857ZM26.4977 16.8426C24.2297 16.2457 21.9134 16.7939 19.7419 17.5126C21.9737 16.0508 24.483 14.4063 27.2577 14.784C29.4654 15.3321 31.5404 16.6355 32.9639 18.4262C34.1824 20.5214 33.9049 23.0795 34.1824 25.4183C33.0243 21.6908 30.5632 17.671 26.4977 16.8426Z" fill="black" fill-opacity="0.5"/>
</svg>
