<svg width="52" height="65" viewBox="0 0 52 65" fill="none" xmlns="http://www.w3.org/2000/svg">
<path d="M18.9624 23.6709C19.4573 25.5038 20.447 27.1625 21.1893 28.9037C23.013 32.5695 24.8001 36.2993 27.3661 39.5252C28.9515 41.5322 31.5909 42.1645 33.9736 42.6777C36.1364 43.1451 38.3358 42.6411 40.4161 42.0454C41.4975 41.798 43.0555 41.5414 43.6603 42.7419C45.5482 46.2335 47.4085 49.7526 49.4155 53.1709C50.2586 54.7563 51.2667 56.3509 51.4225 58.1655C51.5141 59.7234 50.1028 60.6582 48.9298 61.3363C46.2996 63.0226 43.1471 63.3983 40.1412 63.9207C36.732 64.2872 33.2221 64.5622 29.8405 63.829C27.7602 63.3067 25.7623 62.3627 24.0853 61.0247C21.9958 59.2927 20.4379 57.0383 18.7975 54.903C15.4616 50.2108 12.0983 45.537 9.19322 40.5608C6.57221 36.0702 3.89622 31.5706 2.17333 26.6401C1.00029 23.2768 -0.126909 19.7852 0.0105558 16.1744C-0.0627589 13.3427 0.74369 10.5842 1.71511 7.95403C2.31079 6.35027 3.83207 5.44302 4.89514 4.1875C6.30645 2.64789 7.99269 1.26409 9.97219 0.558434C11.2735 0.686733 12.3916 1.45653 13.3263 2.32714C14.8018 3.71096 16.1031 5.25973 17.377 6.81767C18.9257 8.87964 20.7036 10.8042 21.8583 13.1319C22.6373 14.6532 23.3796 16.4219 22.7473 18.1265C22.1241 20.3809 19.8605 21.5906 18.9624 23.6709ZM49.8737 58.7795C49.6355 56.7175 48.3158 55.0404 47.326 53.29C45.4382 50.1742 43.7611 46.93 42.0749 43.7133C41.3875 43.5758 40.691 43.8508 40.0037 43.9332C39.2248 45.8211 38.4641 47.8647 38.9865 49.9359C39.7013 52.841 41.5708 55.2787 43.3671 57.5973C44.3843 58.9719 45.8506 59.8884 47.4543 60.4382C48.27 59.9067 49.0856 59.3568 49.8737 58.7795ZM1.32105 19.4095C2.35662 24.5965 4.4461 29.5452 7.11292 34.0999C9.76141 38.6912 12.5749 43.2001 15.7182 47.4798C18.1834 50.8981 20.5845 54.3714 23.3338 57.579C25.3499 59.9892 28.1542 61.7854 31.2426 62.4452C34.0927 62.9401 37.007 62.8026 39.8754 62.5185C37.2269 60.145 35.0917 57.0749 34.3218 53.565C33.7445 50.5866 33.2771 47.4065 34.2119 44.4464C31.4167 43.7866 28.2367 43.1726 26.3489 40.7899C24.7359 38.7462 23.3705 36.5101 22.1791 34.1915C20.447 30.8924 18.6783 27.5932 17.3495 24.1016C15.26 23.6434 13.2897 22.7361 11.5851 21.4531C9.52315 19.941 7.48864 18.3372 5.86655 16.3486C4.02452 14.0667 3.45633 11.0791 3.34636 8.21063C1.05528 11.4365 0.817011 15.6154 1.32105 19.4095ZM21.4368 15.8904C20.8961 14.2774 19.9613 12.8203 18.9166 11.4915C16.8271 9.00795 14.8843 6.37778 12.5199 4.13252C11.8417 3.53684 11.0994 2.81286 10.1371 2.82203C9.7889 3.00531 9.29403 3.22524 9.31236 3.69262C8.72584 7.22089 9.72474 10.8775 11.6767 13.8376C13.2622 16.3119 15.3883 18.8046 18.3576 19.5469C18.9166 19.6478 19.4939 19.7211 20.0713 19.6477C21.2901 18.8871 21.9042 17.2742 21.4368 15.8904Z" fill="black" fill-opacity="0.5"/>
<path d="M44.4297 53.2716C45.4194 54.0231 46.0793 55.2603 46.0884 56.5158C45.8135 56.7266 45.5294 56.7724 45.2361 56.6532C44.6313 56.195 44.0814 55.6268 43.6782 54.9761C43.2566 54.353 43.669 53.3632 44.4297 53.2716Z" fill="black" fill-opacity="0.5"/>
<path d="M43.7152 51.5673C43.9626 51.0267 44.3659 50.5776 44.7508 50.1194C45.2731 50.9167 45.5481 51.8148 45.1632 52.7129C44.65 52.383 44.0909 52.0714 43.7152 51.5673Z" fill="black" fill-opacity="0.5"/>
<path d="M41.1675 49.9447C41.2958 49.4773 41.5799 49.0924 41.809 48.6525C42.8995 49.1932 43.3028 50.3204 43.3119 51.4751C42.313 51.6034 41.3324 50.9527 41.1675 49.9447Z" fill="black" fill-opacity="0.5"/>
<path d="M23.0769 38.9664C22.5821 40.4694 21.0516 41.8807 19.4479 40.8818C20.1627 39.5346 21.6656 39.1314 23.0769 38.9664Z" fill="black" fill-opacity="0.5"/>
<path d="M20.7767 33.843C20.126 34.4204 19.457 35.1444 18.5406 35.1994C18.064 35.1169 17.1567 35.4743 17.0284 34.8236C18.1098 34.0263 19.4479 33.6964 20.7767 33.843Z" fill="black" fill-opacity="0.5"/>
<path d="M20.8874 36.4004C20.5758 36.9961 20.4109 37.7384 19.8335 38.1417C19.3295 38.4991 18.6788 38.2608 18.1198 38.2516C18.8162 37.3444 19.8702 36.8678 20.8874 36.4004Z" fill="black" fill-opacity="0.5"/>
<path d="M19.4296 32.0923C18.5131 33.0087 17.1293 33.2745 15.9746 32.6788C16.9552 31.8632 18.2474 31.9732 19.4296 32.0923Z" fill="black" fill-opacity="0.5"/>
<path d="M15.333 13.1865C15.443 12.6458 15.8096 12.0135 16.4236 11.9494C17.45 12.8016 17.3033 14.2129 17.2667 15.4043C16.3227 15.0102 15.4796 14.2496 15.333 13.1865Z" fill="black" fill-opacity="0.5"/>
<path d="M14.6642 10.4098C15.0216 9.93328 15.3973 9.47506 15.8097 9.03518C16.0572 9.71334 16.1763 10.419 16.213 11.1338C15.993 11.1338 15.5715 11.1246 15.3607 11.1246C15.1224 10.8955 14.8933 10.6573 14.6642 10.4098Z" fill="black" fill-opacity="0.5"/>
<path d="M12.0437 9.49298C11.9521 8.83315 12.392 8.05418 13.1251 8.03585C14.2157 8.53073 14.1057 9.88705 13.6383 10.7852C13.0701 10.4094 12.3645 10.1436 12.0437 9.49298Z" fill="black" fill-opacity="0.5"/>
</svg>
