<svg width="72" height="72" viewBox="0 0 72 72" fill="none" xmlns="http://www.w3.org/2000/svg">
<path d="M3 54.3809L36 63.3809" stroke="#0037EB" stroke-opacity="0.6" stroke-width="3.375" stroke-linecap="round" stroke-linejoin="round"/>
<path d="M36 63.3809L69 54.3809" stroke="#0037EB" stroke-opacity="0.6" stroke-width="3.375" stroke-linecap="round" stroke-linejoin="round"/>
<path d="M3 54.3815L19.479 50.0645" stroke="#0037EB" stroke-opacity="0.6" stroke-width="3.375" stroke-linecap="round" stroke-linejoin="round"/>
<path d="M3 68.0639V54.7559" stroke="#0037EB" stroke-opacity="0.6" stroke-width="3.375" stroke-linecap="round" stroke-linejoin="round"/>
<path d="M69 54.7559V68.0639" stroke="#0037EB" stroke-opacity="0.6" stroke-width="3.375" stroke-linecap="round" stroke-linejoin="round"/>
<path d="M36 69.5639V63.3809" stroke="#0037EB" stroke-opacity="0.6" stroke-width="3.375" stroke-linecap="round" stroke-linejoin="round"/>
<path d="M46.5 18.1855C46.5 23.9845 44.751 39.1855 36 39.1855C27.249 39.1855 25.5 23.9995 25.5 18.1855C25.5 7.68554 36 2.43555 36 2.43555C36 2.43555 46.5 7.68554 46.5 18.1855Z" stroke="#0037EB" stroke-opacity="0.6" stroke-width="3.375" stroke-linecap="round" stroke-linejoin="round"/>
<path d="M36 17.8105C35.1717 17.8105 34.5 17.139 34.5 16.3105C34.5 15.4821 35.1717 14.8105 36 14.8105" stroke="#0037EB" stroke-opacity="0.6" stroke-width="3.375"/>
<path d="M36 17.8105C36.8283 17.8105 37.5 17.139 37.5 16.3105C37.5 15.4821 36.8283 14.8105 36 14.8105" stroke="#0037EB" stroke-opacity="0.6" stroke-width="3.375"/>
<path d="M30.0312 53.6434V50.6194C30.2718 49.1878 31.0191 47.8903 32.1369 46.9636C33.2547 46.0372 34.6683 45.5434 36.1197 45.5725C37.5714 45.6016 38.964 46.1518 40.0437 47.1223C41.1234 48.0928 41.8182 49.4191 42.0012 50.8594V53.6434" stroke="#0037EB" stroke-opacity="0.6" stroke-width="3.375" stroke-linecap="round" stroke-linejoin="round"/>
<path d="M29.0492 36.4833L26.6252 37.6983C25.2546 38.4258 23.9991 39.3516 22.8992 40.4463C22.6359 40.7286 22.2951 40.9269 21.9195 41.0163C21.5439 41.1054 21.1503 41.0817 20.7881 40.9482C20.426 40.8144 20.1113 40.5768 19.8838 40.2651C19.6562 39.9531 19.5259 39.5808 19.5092 39.1953C19.252 36.9474 19.7309 34.6764 20.8738 32.7237C22.0168 30.771 23.7622 29.2417 25.8482 28.3652" stroke="#0037EB" stroke-opacity="0.6" stroke-width="3.375" stroke-linecap="round" stroke-linejoin="round"/>
<path d="M42.9531 36.4833L45.3771 37.6983C46.7478 38.4258 48.0033 39.3516 49.1031 40.4463C49.3665 40.7286 49.7073 40.9269 50.0829 41.0163C50.4585 41.1054 50.8521 41.0817 51.2142 40.9482C51.5763 40.8144 51.891 40.5768 52.1184 40.2651C52.3461 39.9531 52.4763 39.5808 52.4931 39.1953C52.7502 36.9474 52.2714 34.6764 51.1284 32.7237C49.9854 30.771 48.24 29.2417 46.1541 28.3652" stroke="#0037EB" stroke-opacity="0.6" stroke-width="3.375" stroke-linecap="round" stroke-linejoin="round"/>
<path d="M68.9985 54.3815L52.5195 50.0645" stroke="#0037EB" stroke-opacity="0.6" stroke-width="3.375" stroke-linecap="round" stroke-linejoin="round"/>
</svg>
