<svg width="72" height="72" viewBox="0 0 72 72" fill="none" xmlns="http://www.w3.org/2000/svg">
<path d="M11.8516 36.1504C15.7516 40.0504 20.8516 42.7504 26.8516 42.7504C29.8516 42.7504 32.8515 42.1504 35.2515 40.9504" stroke="#0037EB" stroke-width="2" stroke-miterlimit="10" stroke-linecap="round" stroke-linejoin="round"/>
<path d="M22.9516 54.7498C29.9104 54.7498 35.5515 49.1086 35.5515 42.1498C35.5515 35.191 29.9104 29.5498 22.9516 29.5498C15.9928 29.5498 10.3516 35.191 10.3516 42.1498C10.3516 49.1086 15.9928 54.7498 22.9516 54.7498Z" stroke="#0037EB" stroke-width="2" stroke-miterlimit="10" stroke-linecap="round" stroke-linejoin="round"/>
<path d="M22.9492 57.75V69.75" stroke="#0037EB" stroke-width="2" stroke-miterlimit="10" stroke-linecap="round" stroke-linejoin="round"/>
<path d="M43.65 69.75C39.45 62.55 31.65 57.75 22.95 57.75C14.25 57.75 6.45 62.55 2.25 69.75" stroke="#0037EB" stroke-width="2" stroke-miterlimit="10" stroke-linecap="round" stroke-linejoin="round"/>
<path d="M20.25 20.5498V17.5498C20.25 15.7498 21.45 14.5498 23.25 14.5498H27.75C29.55 14.5498 30.75 15.7498 30.75 17.5498V22.0498" stroke="#0037EB" stroke-width="2" stroke-miterlimit="10" stroke-linecap="round" stroke-linejoin="round"/>
<path d="M64.5 21.75V30.75" stroke="#0037EB" stroke-width="2" stroke-miterlimit="10" stroke-linecap="round" stroke-linejoin="round"/>
<path d="M42.75 27.75C40.95 27.75 39.75 26.55 39.75 24.75V11.25C39.75 9.45 40.95 8.25 42.75 8.25H47.25C49.05 8.25 50.25 9.45 50.25 11.25V24.75C50.25 26.55 49.05 27.75 47.25 27.75H42.75Z" stroke="#0037EB" stroke-width="2" stroke-miterlimit="10" stroke-linecap="round" stroke-linejoin="round"/>
<path d="M45 27.75V33.75" stroke="#0037EB" stroke-width="2" stroke-miterlimit="10" stroke-linecap="round" stroke-linejoin="round"/>
<path d="M45 2.25V8.25" stroke="#0037EB" stroke-width="1.5" stroke-miterlimit="10" stroke-linecap="round" stroke-linejoin="round"/>
<path d="M62.25 21.75C60.45 21.75 59.25 20.55 59.25 18.75V5.25C59.25 3.45 60.45 2.25 62.25 2.25H66.75C68.55 2.25 69.75 3.45 69.75 5.25V18.75C69.75 20.55 68.55 21.75 66.75 21.75H62.25Z" stroke="#0037EB" stroke-width="2" stroke-miterlimit="10" stroke-linecap="round" stroke-linejoin="round"/>
</svg>
